<?xml version="1.0" encoding="UTF-8"?>
<svg version="1.1" xmlns="http://www.w3.org/2000/svg" width="80" height="80">
<path d="M0 0 C1.05048523 0.00607269 1.05048523 0.00607269 2.12219238 0.01226807 C2.86054321 0.00876343 3.59889404 0.00525879 4.35961914 0.00164795 C6.80661346 -0.00717336 9.25331999 -0.00131891 11.70031738 0.00543213 C13.39660701 0.00408559 15.09289627 0.00214515 16.78918457 -0.00036621 C20.34683908 -0.00331801 23.90439327 0.00098194 27.46203613 0.01031494 C32.02882879 0.02170954 36.59538638 0.01515036 41.16217041 0.00317001 C44.66566752 -0.0040471 48.16910865 -0.00176135 51.67260742 0.0034256 C53.35677111 0.00476251 55.04093984 0.00311293 56.72509766 -0.00153351 C59.07635012 -0.00659634 61.42721861 0.0011078 63.77844238 0.01226807 C64.82892761 0.00619537 64.82892761 0.00619537 65.90063477 0 C70.72178823 0.04252797 70.72178823 0.04252797 72.95031738 2.27105713 C73.14846923 4.69935774 73.22315005 7.01359732 73.20910645 9.44293213 C73.21261108 10.18128296 73.21611572 10.91963379 73.21972656 11.68035889 C73.22854788 14.12735321 73.22269342 16.57405973 73.21594238 19.02105713 C73.21728892 20.71734676 73.21922936 22.41363601 73.22174072 24.10992432 C73.22469252 27.66757883 73.22039257 31.22513301 73.21105957 34.78277588 C73.19966497 39.34956853 73.20622415 43.91612613 73.2182045 48.48291016 C73.22542161 51.98640727 73.22313587 55.48984839 73.21794891 58.99334717 C73.216612 60.67751086 73.21826158 62.36167959 73.22290802 64.0458374 C73.22797085 66.39708987 73.22026671 68.74795836 73.20910645 71.09918213 C73.21315491 71.79950562 73.21720337 72.4998291 73.22137451 73.22137451 C73.17884654 78.04252797 73.17884654 78.04252797 70.95031738 80.27105713 C68.52201677 80.46920897 66.20777719 80.5438898 63.77844238 80.52984619 C62.67091614 80.53510315 62.67091614 80.53510315 61.54101562 80.54046631 C59.0940213 80.54928762 56.64731478 80.54343317 54.20031738 80.53668213 C52.50402775 80.53802867 50.8077385 80.5399691 49.1114502 80.54248047 C45.55379569 80.54543227 41.9962415 80.54113232 38.43859863 80.53179932 C33.87180598 80.52040472 29.30524838 80.52696389 24.73846436 80.53894424 C21.23496724 80.54616135 17.73152612 80.54387561 14.22802734 80.53868866 C12.54386365 80.53735175 10.85969492 80.53900133 9.17553711 80.54364777 C6.82428464 80.5487106 4.47341615 80.54100645 2.12219238 80.52984619 C1.4218689 80.53389465 0.72154541 80.53794312 0 80.54211426 C-4.82115346 80.49958628 -4.82115346 80.49958628 -7.04968262 78.27105713 C-7.24783446 75.84275652 -7.32251529 73.52851694 -7.30847168 71.09918213 C-7.31197632 70.3608313 -7.31548096 69.62248047 -7.3190918 68.86175537 C-7.32791311 66.41476105 -7.32205866 63.96805452 -7.31530762 61.52105713 C-7.31665416 59.8247675 -7.31859459 58.12847825 -7.32110596 56.43218994 C-7.32405776 52.87453543 -7.31975781 49.31698124 -7.3104248 45.75933838 C-7.29903021 41.19254572 -7.30558938 36.62598813 -7.31756973 32.0592041 C-7.32478684 28.55570699 -7.3225011 25.05226586 -7.31731415 21.54876709 C-7.31597724 19.8646034 -7.31762682 18.18043467 -7.32227325 16.49627686 C-7.32733609 14.14502439 -7.31963194 11.7941559 -7.30847168 9.44293213 C-7.31252014 8.74260864 -7.3165686 8.04228516 -7.32073975 7.32073975 C-7.26777273 1.31617227 -6.00456747 0.05296701 0 0 Z M7.13781738 12.33355713 C4.79931812 14.10508591 4.79931812 14.10508591 4.01281738 16.70855713 C3.94003975 19.69244 4.09082815 20.92648375 5.95031738 23.27105713 C8.72475215 24.86258521 8.72475215 24.86258521 11.95031738 25.27105713 C14.84331292 24.36867747 14.84331292 24.36867747 16.95031738 22.27105713 C18.01726285 19.49699892 18.12561619 17.95277473 17.38781738 15.08355713 C14.56088778 11.51916763 11.3171874 10.75468401 7.13781738 12.33355713 Z M4.95031738 30.27105713 C4.95031738 42.81105713 4.95031738 55.35105713 4.95031738 68.27105713 C8.91031738 68.27105713 12.87031738 68.27105713 16.95031738 68.27105713 C16.95031738 55.73105713 16.95031738 43.19105713 16.95031738 30.27105713 C12.99031738 30.27105713 9.03031738 30.27105713 4.95031738 30.27105713 Z M22.95031738 30.27105713 C22.95031738 42.81105713 22.95031738 55.35105713 22.95031738 68.27105713 C26.91031738 68.27105713 30.87031738 68.27105713 34.95031738 68.27105713 C34.9877002 66.50117432 35.02508301 64.7312915 35.06359863 62.90777588 C35.12924639 60.59134801 35.19569413 58.27494271 35.26281738 55.95855713 C35.29665527 54.20768799 35.29665527 54.20768799 35.33117676 52.42144775 C35.36662598 51.30318604 35.4020752 50.18492432 35.43859863 49.03277588 C35.46478271 48.00112305 35.4909668 46.96947021 35.51794434 45.90655518 C35.95031738 43.27105713 35.95031738 43.27105713 37.25964355 41.43048096 C40.06523373 39.50647406 42.66982458 39.97283051 45.95031738 40.27105713 C48.62880285 42.94954259 48.25535744 44.41076574 48.36437988 48.15386963 C48.40305176 49.32047119 48.44172363 50.48707275 48.48156738 51.68902588 C48.51250488 52.91234619 48.54344238 54.1356665 48.57531738 55.39605713 C48.61398926 56.62711182 48.65266113 57.8581665 48.69250488 59.12652588 C48.78701413 62.17444924 48.86976362 65.22273302 48.95031738 68.27105713 C52.91031738 68.27105713 56.87031738 68.27105713 60.95031738 68.27105713 C61.00469077 64.62501944 61.04417186 60.97980763 61.07531738 57.33355713 C61.0920752 56.3119751 61.10883301 55.29039307 61.12609863 54.237854 C61.25557234 43.72450256 61.25557234 43.72450256 57.57531738 34.07965088 C53.25268184 30.43242714 49.91207125 29.5162214 44.25500488 29.86871338 C40.16215884 30.58322718 37.81961385 32.40176066 34.95031738 35.27105713 C34.62031738 33.62105713 34.29031738 31.97105713 33.95031738 30.27105713 C30.32031738 30.27105713 26.69031738 30.27105713 22.95031738 30.27105713 Z " fill="#FFFFFF" transform="translate(7.0496826171875,-0.27105712890625)"/>
</svg>
